<svg xmlns="http://www.w3.org/2000/svg" xmlns:xlink="http://www.w3.org/1999/xlink" viewBox="0 0 592 592"><defs><style>.cls-1{fill:none;stroke:#231f20;}.cls-1,.cls-6,.cls-7{stroke-miterlimit:10;}.cls-2{opacity:0.46;}.cls-3,.cls-8{fill:#ffc835;}.cls-4{fill:#d8a32e;}.cls-5{fill:#cc9a36;}.cls-6,.cls-7{stroke:#000;}.cls-6{opacity:0.51;fill:url(#linear-gradient);}.cls-7{opacity:0.51;fill:url(#linear-gradient-2);}.cls-8{opacity:0.26;}.cls-9{opacity:0.5;}</style><linearGradient id="linear-gradient" x1="824.8" y1="622.58" x2="1083.44" y2="622.58" gradientUnits="userSpaceOnUse"><stop offset="0" stop-color="#fff"/><stop offset="0.04" stop-color="#fdfff7"/><stop offset="0.1" stop-color="#f7ffe1"/><stop offset="0.18" stop-color="#edffbd"/><stop offset="0.27" stop-color="#e0ff8c"/><stop offset="0.37" stop-color="#cfff4d"/><stop offset="0.43" stop-color="#c3ff1f"/></linearGradient><linearGradient id="linear-gradient-2" x1="605.51" y1="599.16" x2="901.99" y2="599.16" gradientUnits="userSpaceOnUse"><stop offset="0" stop-color="#fff"/><stop offset="0.04" stop-color="#fdfff7"/><stop offset="0.09" stop-color="#f7ffe1"/><stop offset="0.17" stop-color="#edffbd"/><stop offset="0.25" stop-color="#e0ff8c"/><stop offset="0.34" stop-color="#cfff4d"/><stop offset="0.4" stop-color="#c3ff1f"/></linearGradient><symbol id="Star" data-name="Star" viewBox="0 0 124.01 117.2"><ellipse cx="62" cy="58.6" rx="61.99" ry="58.58"/><ellipse class="cls-1" cx="62" cy="58.6" rx="61.99" ry="58.58"/></symbol></defs><g id="Layer_8" data-name="Layer 8" class="cls-2"><path class="cls-3" d="M853,586.69c-85.35,0-154.55-59.13-154.55-132.07S767.62,322.56,853,322.56c36.39,0,69.83,10.75,96.24,28.73-33.05-31.3-80.88-51-134.1-51-99.72,0-180.56,69.08-180.56,154.3s80.84,154.31,180.56,154.31c53.22,0,101-19.68,134.1-51C922.8,575.94,889.36,586.69,853,586.69ZM762.33,318.77a7.43,7.43,0,1,1-7.7,7.42A7.56,7.56,0,0,1,762.33,318.77Zm-52,32.64a9.28,9.28,0,1,1-9.62,9.28A9.46,9.46,0,0,1,710.37,351.41ZM650.71,458.26a6.68,6.68,0,1,1,6.93-6.68A6.81,6.81,0,0,1,650.71,458.26ZM683,517.62a9.66,9.66,0,1,1,10-9.65A9.83,9.83,0,0,1,683,517.62Zm5-102.76a4.82,4.82,0,1,1,5-4.82A4.91,4.91,0,0,1,688,414.86Zm31.37,142.82c-5,0-9-2-9-4.45s4-4.45,9-4.45,9.05,2,9.05,4.45S724.41,557.68,719.41,557.68Z" transform="translate(-520.74 -261.68)"/><path class="cls-4" d="M710.37,370a9.28,9.28,0,1,0-9.62-9.27A9.45,9.45,0,0,0,710.37,370Z" transform="translate(-520.74 -261.68)"/><ellipse class="cls-5" cx="129.98" cy="189.9" rx="6.93" ry="6.68"/><ellipse class="cls-5" cx="162.31" cy="246.29" rx="10.01" ry="9.65"/><ellipse class="cls-5" cx="167.31" cy="148.36" rx="5" ry="4.82"/><ellipse class="cls-5" cx="198.68" cy="291.55" rx="9.04" ry="4.45"/><ellipse class="cls-5" cx="241.59" cy="64.51" rx="7.7" ry="7.42"/></g><g id="Layer_2" data-name="Layer 2"><path class="cls-6" d="M999.89,581.17c22-9,78,91.41,83.15,88.52,6.39-3.61-64.88-169.75-99.25-160.94-31.16,8-12.07,154.71-34.87,158.26-23,3.57-50.48-144.28-80.47-142.17-35.34,2.5-46.84,211.39-42.91,211.91,3.16.42,19.83-134.48,42.91-134.12,17.82.28,18,80.82,61.7,93.88,14.14,4.23,31.23.92,42.91-8C1009.1,660.83,981.83,588.59,999.89,581.17Z" transform="translate(-520.74 -261.68)"/><path class="cls-7" d="M628.37,555.83c3.21,33.83-1.44,33.94,0,150.21.54,43.86,1.44,62.68,16.09,75.1,21.63,18.33,64.58,15.42,80.48-5.36,24.72-32.33-20.74-101.8-10.73-107.3,9-5,34.53,58.25,85.83,69.75,46.4,10.39,103.11-24,101.93-48.29-1.82-37.35-139.64-42.74-142.16-83.15-2.36-37.85,117-58.48,115.34-104.61-.77-21.7-28.14-44.38-53.65-45.6C766.71,454,730,550.77,708.84,542.41c-20.67-8.18,15.94-100.54-21.46-128.75-20.24-15.26-59-9.4-75.1,10.73C592.78,448.85,620.87,476.82,628.37,555.83Z" transform="translate(-520.74 -261.68)"/></g><g id="Layer_1" data-name="Layer 1"><circle class="cls-8" cx="296" cy="296" r="296"/></g><g id="Layer_5" data-name="Layer 5" class="cls-9"><use width="124.01" height="117.2" transform="translate(415.82 215.74) scale(0.32 0.31)" xlink:href="#Star"/><use width="124.01" height="117.2" transform="translate(281.26 108.28) scale(0.67 0.8)" xlink:href="#Star"/></g></svg>